<mxfile host="app.diagrams.net" modified="2023-08-13T09:35:08.212Z" agent="Mozilla/5.0 (Windows NT 10.0; Win64; x64) AppleWebKit/537.36 (KHTML, like Gecko) Chrome/115.0.0.0 Safari/537.36" etag="FMObC6YZBl9jOUm7crys" version="21.6.8" type="github">
  <diagram name="Страница — 1" id="esuZyuupJLuho4oqFtwd">
    <mxGraphModel dx="1434" dy="758" grid="1" gridSize="10" guides="1" tooltips="1" connect="1" arrows="1" fold="1" page="0" pageScale="1" pageWidth="827" pageHeight="1169" background="#000000" math="0" shadow="0">
      <root>
        <mxCell id="0" />
        <mxCell id="1" parent="0" />
        <mxCell id="a9ZtihEkZwW9otxZTu7b-2" value="" style="ellipse;shape=cloud;whiteSpace=wrap;html=1;fillStyle=hatch;fillColor=#003300;strokeColor=#33FF33;" vertex="1" parent="1">
          <mxGeometry x="50" y="90" width="600" height="400" as="geometry" />
        </mxCell>
        <mxCell id="a9ZtihEkZwW9otxZTu7b-1" value="&lt;h1 style=&quot;&quot;&gt;&lt;font style=&quot;font-size: 30px;&quot;&gt;Цели&lt;/font&gt;&lt;/h1&gt;&lt;p style=&quot;font-size: 20px;&quot;&gt;&lt;/p&gt;&lt;ul style=&quot;font-size: 20px;&quot;&gt;&lt;li style=&quot;font-size: 20px;&quot;&gt;модульность&lt;/li&gt;&lt;li style=&quot;font-size: 20px;&quot;&gt;слабая сцепленность&lt;br style=&quot;font-size: 20px;&quot;&gt;&lt;/li&gt;&lt;li style=&quot;font-size: 20px;&quot;&gt;параллельная разработка&lt;/li&gt;&lt;/ul&gt;&lt;p style=&quot;font-size: 20px;&quot;&gt;&lt;/p&gt;" style="text;html=1;strokeColor=none;fillColor=none;spacing=5;spacingTop=-20;whiteSpace=wrap;overflow=hidden;rounded=0;fontColor=#99FF33;fontFamily=Comic Sans MS;fontSize=20;" vertex="1" parent="1">
          <mxGeometry x="220" y="185" width="340" height="210" as="geometry" />
        </mxCell>
      </root>
    </mxGraphModel>
  </diagram>
</mxfile>
